<svg
  width="40"
  height="28"
  viewBox="0 0 40 28"
  fill="none"
  xmlns="http://www.w3.org/2000/svg"
>
  <path
    d="M29.1538 15.3422L40 4.49604V26.1884L29.1538 15.3422ZM38.9843 0.393248H1.01581C0.455181 0.394103 0.000875574 0.848422 0 1.40935V1.8611L16.9912 18.8502V18.8499C17.8471 19.7038 19.0066 20.1831 20.2156 20.1831C21.4243 20.1831 22.5841 19.7037 23.4398 18.8499L39.9998 2.29204V1.4088C39.9989 0.847889 39.5446 0.393576 38.984 0.3927L38.9843 0.393248ZM0.000145849 4.06424V26.5898V26.6186L11.2783 15.342L0.000145849 4.06424ZM24.5425 19.9537C23.3942 21.0998 21.8383 21.743 20.2162 21.743C18.5939 21.743 17.0379 21.0997 15.8896 19.9537L12.3799 16.444L1.21851 27.6061H38.9842C39.0537 27.6058 39.1236 27.5987 39.1917 27.5844L28.0522 16.4449L24.5425 19.9537Z"
    fill="#457B9D"
  />
</svg>
