<svg
  width="40"
  height="41"
  viewBox="0 0 40 41"
  fill="none"
  xmlns="http://www.w3.org/2000/svg"
>
  <path
    d="M35.2381 0.606201H4.7619C2.13333 0.606201 0 2.73953 0 5.36811V35.8443C0 38.4729 2.13333 40.6062 4.7619 40.6062H35.2381C37.8667 40.6062 40 38.4729 40 35.8443V5.36811C40 2.73953 37.8667 0.606201 35.2381 0.606201ZM12.381 15.8443V33.9395H6.66667V15.8443H12.381ZM6.66667 10.5776C6.66667 9.2443 7.80952 8.22525 9.52381 8.22525C11.2381 8.22525 12.3143 9.2443 12.381 10.5776C12.381 11.911 11.3143 12.9872 9.52381 12.9872C7.80952 12.9872 6.66667 11.911 6.66667 10.5776ZM33.3333 33.9395H27.619C27.619 33.9395 27.619 25.1205 27.619 24.4157C27.619 22.511 26.6667 20.6062 24.2857 20.5681H24.2095C21.9048 20.5681 20.9524 22.53 20.9524 24.4157C20.9524 25.2824 20.9524 33.9395 20.9524 33.9395H15.2381V15.8443H20.9524V18.2824C20.9524 18.2824 22.7905 15.8443 26.4857 15.8443C30.2667 15.8443 33.3333 18.4443 33.3333 23.711V33.9395Z"
    fill="#457B9D"
  />
</svg>
