<svg
  width="40"
  height="41"
  viewBox="0 0 40 41"
  fill="none"
  xmlns="http://www.w3.org/2000/svg"
>
  <path
    d="M34.2305 6.37773C31.2111 3.35837 27.9858 5.3126 25.9673 7.33107L16.4339 16.8652L6.89933 26.3995C4.88086 28.4177 2.76816 31.4844 5.94598 34.6618C9.1238 37.8403 12.1905 35.7271 14.2085 33.7087L23.7426 24.1746L33.2767 14.6407C35.2954 12.622 37.2494 9.39665 34.2305 6.37773Z"
    fill="#457B9D"
  />
  <path
    d="M16.0131 5.5968L20.0507 9.63417L24.1604 5.52442C24.4395 5.24475 24.7228 4.98522 25.0078 4.74045C24.5774 2.56909 23.3383 0.606079 20.0488 0.606079C16.7529 0.606079 15.5154 2.5768 15.0876 4.75287C15.3951 5.01905 15.7024 5.28587 16.0131 5.5968Z"
    fill="#457B9D"
  />
  <path
    d="M24.1583 35.5875L20.0511 31.4801L16.0157 35.5151C15.7092 35.8218 15.4043 36.1019 15.1006 36.365C15.5634 38.5786 16.8731 40.6061 20.0494 40.6061C23.2341 40.6061 24.542 38.5677 25.0018 36.347C24.7193 36.104 24.4365 35.8657 24.1583 35.5875Z"
    fill="#457B9D"
  />
  <path
    d="M14.3008 15.3844H6.51688C3.66263 15.3844 0 16.2834 0 20.5529C0 23.7386 2.03903 25.0468 4.26008 25.5063C4.52304 25.2029 14.3008 15.3844 14.3008 15.3844Z"
    fill="#457B9D"
  />
  <path
    d="M35.8543 15.5917C35.6078 15.8782 25.8097 25.7215 25.8097 25.7215H33.4831C36.3374 25.7215 40 25.0472 40 20.5531C40 17.2577 38.0299 16.0195 35.8543 15.5917Z"
    fill="#457B9D"
  />
  <path
    d="M16.8512 12.8293L18.2418 11.4387L14.2068 7.40324C12.1881 5.38498 9.1219 3.27208 5.94408 6.4499C3.61382 8.78015 4.13139 11.0481 5.3674 12.8893C5.74386 12.8612 16.8512 12.8293 16.8512 12.8293Z"
    fill="#457B9D"
  />
  <path
    d="M23.2492 28.2767L21.855 29.6709L25.9652 33.7807C27.9836 35.7994 31.209 37.7531 34.2279 34.7342C36.4807 32.4813 35.9637 30.115 34.7183 28.2195C34.3174 28.2484 23.2492 28.2767 23.2492 28.2767Z"
    fill="#457B9D"
  />
</svg>
